
<?xml version="1.0" standalone="no"?>
<!DOCTYPE svg PUBLIC "-//W3C//DTD SVG 1.1//EN" "http://www.w3.org/Graphics/SVG/1.1/DTD/svg11.dtd">
<!--Generator: Xara Xtreme (www.xara.com), SVG filter version: 1.0.0.13-->
<svg stroke-width="0.501" stroke-linejoin="bevel" fill-rule="evenodd" xmlns:xlink="http://www.w3.org/1999/xlink" xmlns="http://www.w3.org/2000/svg" version="1.1" overflow="visible" width="654.48pt" height="406.08pt" viewBox="0 0 654.48 406.08">
 <defs>
  <marker id="DefaultArrow2" markerUnits="strokeWidth" viewBox="0 0 1 1" markerWidth="1" markerHeight="1" overflow="visible" orient="auto">
   <!-- REF_ARROW_STRAIGHT (-2) -->
   <g transform="scale(0.0092592592)">
    <!-- 1/108 -->
    <path d="M -9 54 L -9 -54 L 117 0 z"/>
   </g>
  </marker>
  <marker id="DefaultArrow3" markerUnits="strokeWidth" viewBox="0 0 1 1" markerWidth="1" markerHeight="1" overflow="visible" orient="auto">
   <!-- REF_ARROW_ANGLED -->
   <g transform="scale(0.0092592592)">
    <path d="M -27 54 L -9 0 L -27 -54 L 135 0 z"/>
   </g>
  </marker>
  <marker id="DefaultArrow4" markerUnits="strokeWidth" viewBox="0 0 1 1" markerWidth="1" markerHeight="1" overflow="visible" orient="auto">
   <!-- REF_ARROW_ROUNDED -->
   <g transform="scale(0.0092592592)">
    <path d="M -9,0 L -9,-45 C -9,-51.708 2.808,-56.580 9,-54 L 117,-9 C 120.916,-7.369 126.000,-4.242 126,0 C 126,4.242 120.916,7.369 117,9 L 9,54 C 2.808,56.580 -9,51.708 -9,45 z"/>
   </g>
  </marker>
  <marker id="DefaultArrow5" markerUnits="strokeWidth" viewBox="0 0 1 1" markerWidth="1" markerHeight="1" overflow="visible" orient="auto">
   <!-- REF_ARROW_SPOT -->
   <g transform="scale(0.0092592592)">
    <path d="M -54, 0 C -54,29.807 -29.807,54 0,54 C 29.807,54 54,29.807 54,0 C 54,-29.807 29.807,-54 0,-54 C -29.807,-54 -54,-29.807 -54,0 z"/>
   </g>
  </marker>
  <marker id="DefaultArrow6" markerUnits="strokeWidth" viewBox="0 0 1 1" markerWidth="1" markerHeight="1" overflow="visible" orient="auto">
   <!-- REF_ARROW_DIAMOND -->
   <g transform="scale(0.0092592592)">
    <path d="M -63,0 L 0,63 L 63,0 L 0,-63 z"/>
   </g>
  </marker>
  <marker id="DefaultArrow7" markerUnits="strokeWidth" viewBox="0 0 1 1" markerWidth="1" markerHeight="1" overflow="visible" orient="auto">
   <!-- REF_ARROW_FEATHER -->
   <g transform="scale(0.0092592592)">
    <path d="M 18,-54 L 108,-54 L 63,0 L 108,54 L 18, 54 L -36,0 z"/>
   </g>
  </marker>
  <marker id="DefaultArrow8" markerUnits="strokeWidth" viewBox="0 0 1 1" markerWidth="1" markerHeight="1" overflow="visible" orient="auto">
   <!-- REF_ARROW_FEATHER2 -->
   <g transform="scale(0.0092592592)">
    <path d="M -36,0 L 18,-54 L 54,-54 L 18,-18 L 27,-18 L 63,-54 L 99,-54 L 63,-18 L 72,-18 L 108,-54 L 144,-54 L 90,0 L 144,54 L 108,54 L 72,18 L 63,18 L 99,54 L 63,54 L 27,18 L 18,18 L 54,54 L 18,54 z"/>
   </g>
  </marker>
  <marker id="DefaultArrow9" markerUnits="strokeWidth" viewBox="0 0 1 1" markerWidth="1" markerHeight="1" overflow="visible" orient="auto">
   <!-- REF_ARROW_HOLLOWDIAMOND -->
   <g transform="scale(0.0092592592)">
    <path d="M 0,45 L -45,0 L 0, -45 L 45, 0 z M 0, 63 L-63, 0 L 0, -63 L 63, 0 z"/>
   </g>
  </marker>
  <filter id="StainedFilter">
   <feBlend mode="multiply" in2="BackgroundImage" in="SourceGraphic" result="blend"/>
   <feComposite in="blend" in2="SourceAlpha" operator="in" result="comp"/>
  </filter>
  <filter id="BleachFilter">
   <feBlend mode="screen" in2="BackgroundImage" in="SourceGraphic" result="blend"/>
   <feComposite in="blend" in2="SourceAlpha" operator="in" result="comp"/>
  </filter>
  <filter id="InvertTransparencyBitmapFilter">
   <feComponentTransfer>
    <feFuncR type="gamma" amplitude="1.055" exponent=".416666666" offset="-0.055"/>
    <feFuncG type="gamma" amplitude="1.055" exponent=".416666666" offset="-0.055"/>
    <feFuncB type="gamma" amplitude="1.055" exponent=".416666666" offset="-0.055"/>
   </feComponentTransfer>
   <feComponentTransfer>
    <feFuncR type="linear" slope="-1" intercept="1"/>
    <feFuncG type="linear" slope="-1" intercept="1"/>
    <feFuncB type="linear" slope="-1" intercept="1"/>
    <feFuncA type="linear" slope="1" intercept="0"/>
   </feComponentTransfer>
   <feComponentTransfer>
    <feFuncR type="gamma" amplitude="1" exponent="2.4" offset="0"/>
    <feFuncG type="gamma" amplitude="1" exponent="2.4" offset="0"/>
    <feFuncB type="gamma" amplitude="1" exponent="2.4" offset="0"/>
   </feComponentTransfer>
  </filter>
 </defs>
 <g id="Document" fill="none" stroke="black" font-family="Times New Roman" font-size="16" transform="scale(1 -1)">
  <g id="Spread" transform="translate(0 -406.08)">
   <g id="Layer 1">
    <g id="Group" fill-rule="nonzero" stroke="none" stroke-width="0.25" fill="#7f0000" stroke-miterlimit="79.8403193612775">
     <g id="Group_1">
      <path d="M 15.113,124.314 L 73.71,187.793 L 0.468,217.091 L 73.71,246.383 L 15.113,314.744 L 127.419,268.355 C 136.21,296.681 154.599,325.653 182.599,355.271 C 210.592,384.896 258.772,401.66 327.126,405.563 C 396.14,401.66 444.64,384.896 472.633,355.271 C 500.626,325.653 519.022,296.681 527.813,268.355 L 640.112,314.744 L 581.522,246.383 L 654.765,217.091 L 581.522,187.793 L 640.112,124.314 L 533.668,154.591 C 526.508,117.154 507.543,81.918 476.786,48.876 C 446.022,15.842 396.3,-0.679 327.613,-0.686 C 258.932,-0.679 209.21,15.842 178.446,48.876 C 147.682,81.918 128.724,117.154 121.564,154.591 L 15.113,124.314 Z M 244.606,100.876 C 256.328,96.973 269.349,95.022 283.668,95.022 L 283.668,197.556 L 244.606,187.793 L 244.606,100.876 Z M 190.898,121.383 C 199.363,114.55 210.752,109.668 225.078,106.737 L 225.078,181.931 L 190.898,174.119 L 190.898,121.383 Z M 146.953,163.376 C 152.807,152.966 160.946,143.522 171.363,135.057 L 171.363,169.237 L 146.953,163.376 Z M 410.626,100.876 L 410.626,187.793 L 371.564,197.556 L 371.564,95.022 C 385.89,95.022 398.911,96.973 410.626,100.876 Z M 464.334,121.383 L 464.334,174.119 L 430.154,181.931 L 430.154,106.737 C 444.48,109.668 455.876,114.55 464.334,121.383 Z M 508.279,163.376 L 483.862,169.237 L 483.862,135.057 C 494.279,143.522 502.418,152.966 508.279,163.376 Z M 306.133,285.445 C 305.807,298.14 300.682,309.452 290.752,319.383 C 280.828,329.313 268.863,334.278 254.863,334.278 C 240.536,334.278 228.411,329.23 218.488,319.139 C 208.557,309.049 203.592,297.008 203.592,283.008 C 203.592,268.681 208.557,256.556 218.488,246.633 C 228.411,236.702 240.536,231.737 254.863,231.737 C 268.863,231.737 280.335,236.133 289.286,244.917 C 298.238,253.709 303.529,262.008 305.154,269.82 C 310.363,270.473 314.106,273.244 316.383,278.126 C 318.661,283.008 322.404,285.445 327.613,285.445 C 332.821,285.445 336.564,283.008 338.849,278.126 C 341.126,273.244 344.869,270.473 350.078,269.82 C 351.703,262.008 356.994,253.709 365.946,244.917 C 374.897,236.133 386.369,231.737 400.369,231.737 C 414.689,231.737 426.814,236.702 436.744,246.633 C 446.675,256.556 451.64,268.681 451.64,283.008 C 451.64,297.008 446.675,309.049 436.744,319.139 C 426.814,329.23 414.689,334.278 400.369,334.278 C 386.369,334.278 374.411,329.313 364.481,319.383 C 354.557,309.452 349.425,297.98 349.099,284.959 C 341.939,296.355 334.779,302.049 327.613,302.049 C 320.453,302.049 313.293,296.515 306.133,285.445 Z M 303.203,192.675 L 303.203,93.064 C 312.64,93.071 320.779,93.071 327.613,93.064 C 334.453,93.071 342.592,93.071 352.029,93.064 L 352.029,192.675 L 327.613,173.147 L 303.203,192.675 Z M 132.301,158.494 L 126.446,156.543 C 136.21,140.272 147.925,124.647 161.599,109.668 C 178.523,88.834 190.405,73.855 197.245,64.744 C 204.078,55.626 212.87,46.189 223.613,36.425 C 234.356,26.661 246.238,18.522 259.259,12.008 L 288.55,68.654 C 304.828,66.703 317.849,65.723 327.613,65.723 C 337.383,65.723 350.404,66.703 366.675,68.654 L 395.973,12.008 C 408.994,18.522 420.876,26.661 431.619,36.425 C 442.362,46.189 451.154,55.626 457.987,64.744 C 464.821,73.855 476.702,88.834 493.633,109.668 C 507.307,124.647 519.022,140.272 528.786,156.543 L 522.925,158.494 C 500.14,125.293 477.841,104.543 456.036,96.237 C 434.223,87.939 416.161,82.571 401.835,80.126 C 387.515,77.689 362.772,76.466 327.613,76.466 C 292.46,76.466 267.724,77.689 253.397,80.126 C 239.078,82.571 221.009,87.939 199.196,96.237 C 177.391,104.543 155.092,125.293 132.301,158.494 Z" marker-start="none" marker-end="none"/>
     </g>
    </g>
   </g>
  </g>
 </g>
</svg>
